HIERARCHY
ROOT Hips
{
  OFFSET 0 0 0
  CHANNELS 6 Xposition Yposition Zposition Zrotation Xrotation Yrotation
  JOINT Spine
  {
    OFFSET 0 8.18577 0
    CHANNELS 3 Zrotation Xrotation Yrotation
    JOINT Spine1
    {
      OFFSET 0 23.9492 0
      CHANNELS 3 Zrotation Xrotation Yrotation
      JOINT Neck
      {
        OFFSET 0 23.8508 2.16826
        CHANNELS 3 Zrotation Xrotation Yrotation
        JOINT Head
        {
          OFFSET 0 13.9757 -1.99653
          CHANNELS 3 Zrotation Xrotation Yrotation
          End Site
          {
            OFFSET 0 24.9566 0
          }
        }
      }
      JOINT LeftShoulder
      {
        OFFSET 3.97939 22.162 -0.249083
        CHANNELS 3 Zrotation Xrotation Yrotation
        JOINT LeftArm
        {
          OFFSET 10.8129 0 0
          CHANNELS 3 Zrotation Xrotation Yrotation
          JOINT LeftForeArm
          {
            OFFSET 31.6972 0 0
            CHANNELS 3 Zrotation Xrotation Yrotation
            JOINT LeftHand
            {
              OFFSET 27.0474 0 0
              CHANNELS 3 Zrotation Xrotation Yrotation
              End Site
              {
                OFFSET 14.974 0 0
              }
            }
          }
        }
      }
      JOINT RightShoulder
      {
        OFFSET -4.00645 22.162 -0.249083
        CHANNELS 3 Zrotation Xrotation Yrotation
        JOINT RightArm
        {
          OFFSET -10.8129 0 0
          CHANNELS 3 Zrotation Xrotation Yrotation
          JOINT RightForeArm
          {
            OFFSET -31.6972 0 0
            CHANNELS 3 Zrotation Xrotation Yrotation
            JOINT RightHand
            {
              OFFSET -27.0474 0 0
              CHANNELS 3 Zrotation Xrotation Yrotation
              End Site
              {
                OFFSET -14.974 0 0
              }
            }
          }
        }
      }
    }
  }
  JOINT LeftUpLeg
  {
    OFFSET 9.98265 0 0
    CHANNELS 3 Zrotation Xrotation Yrotation
    JOINT LeftLeg
    {
      OFFSET 0 -38.5116 0
      CHANNELS 3 Zrotation Xrotation Yrotation
      JOINT LeftFoot
      {
        OFFSET 0 -44.7893 0
        CHANNELS 3 Zrotation Xrotation Yrotation
        JOINT LeftToeBase
        {
          OFFSET 0 -6.48872 14.974
          CHANNELS 3 Zrotation Xrotation Yrotation
          End Site
          {
            OFFSET 0 0 3.99306
          }
        }
      }
    }
  }
  JOINT RightUpLeg
  {
    OFFSET -9.98265 0 0
    CHANNELS 3 Zrotation Xrotation Yrotation
    JOINT RightLeg
    {
      OFFSET 0 -38.5116 0
      CHANNELS 3 Zrotation Xrotation Yrotation
      JOINT RightFoot
      {
        OFFSET 0 -44.7893 0
        CHANNELS 3 Zrotation Xrotation Yrotation
        JOINT RightToeBase
        {
          OFFSET 0 -6.48872 14.974
          CHANNELS 3 Zrotation Xrotation Yrotation
          End Site
          {
            OFFSET 0 0 3.99306
          }
        }
      }
    }
  }
}
MOTION
Frames:	12
Frame Time:	0.00833333
-2.50283 80.6877 7.24478 -28.0981 -81.7821 154.214 2.11434 -2.59251 -1.54233 -3.48069 -16.6006 -2.09817 3.65449 2.85432 -0.801613 5.18224 -30.2907 0.781482 25.1565 -10.8051 -8.31768 2.98187 -13.7149 -39.6404 55.3463 -39.5349 -83.8143 -15.0844 9.65296 41.3927 -13.4361 -9.44202 2.84314 13.1432 -16.9092 15.6441 -31.2664 -35.256 107.008 -28.2508 17.756 -38.7234 6.32969 15.5555 13.2148 -0.567833 23.099 38.1629 -14.0697 11.5666 -4.86621 -4.77083e-015 -3.18055e-015 5.56597e-015 -17.4319 7.595 -19.4649 8.15914 51.8819 -3.84302 26.2208 15.2548 -24.4807 -7.95139e-016 -3.18055e-015 -1.59028e-015 
-2.47855 80.7102 7.25554 -27.8326 -81.8836 154.665 2.46511 -2.51542 -1.52851 -4.09756 -16.7099 -2.18468 3.87006 2.7372 -0.909051 5.13313 -29.9739 0.605738 25.4587 -10.9695 -8.28675 3.29486 -14.1035 -39.9062 55.9372 -39.1895 -82.9884 -16.3925 9.30951 42.3158 -13.1385 -9.69614 3.04868 11.8505 -17.126 17.0769 -31.9644 -35.3187 105.64 -27.4689 17.6512 -39.9617 6.67958 14.5673 13.0551 -0.0799766 25.632 39.0423 -14.6338 10.7649 -5.37719 1.59028e-015 -6.36111e-015 -2.38542e-015 -18.09 7.64315 -19.4264 9.10194 52.8291 -4.69957 25.3059 15.7885 -24.1166 -2.38542e-015 -1.27222e-014 -3.18055e-015 
-2.43168 80.7064 7.242 -27.4631 -81.909 155.17 2.69049 -2.4661 -1.53727 -4.48752 -16.6415 -2.25171 3.88309 2.5674 -0.99578 5.19162 -29.7059 0.519592 25.7232 -11.1436 -8.19846 3.66164 -14.1633 -40.0133 57.5317 -38.9453 -81.1817 -17.9905 8.95017 43.0859 -13.0856 -9.83382 3.25839 10.7943 -17.7282 18.6308 -32.3323 -35.0124 104.502 -26.7359 17.6521 -41.2037 7.044 13.5432 12.885 0.441075 28.4948 39.9961 -15.0045 10.1774 -6.15907 3.53113e-031 -6.36111e-015 3.18055e-015 -18.7534 7.73012 -19.6145 9.60852 53.8545 -5.20969 25.3803 15.7534 -24.14 3.18055e-015 -3.18055e-015 4.77083e-015 
-2.37583 80.6982 7.22006 -26.7287 -81.915 156.024 2.89782 -2.45721 -1.54425 -4.76087 -16.3815 -2.29211 3.57117 2.68608 -1.11177 5.68143 -30.0303 0.650367 26.0612 -11.3754 -8.11444 3.83995 -14.4843 -39.9725 58.3941 -38.5721 -80.0265 -19.2845 8.58064 43.8201 -13.2991 -10.1763 3.40453 10.1306 -18.471 20.1109 -32.5592 -34.4102 103.531 -25.8656 17.8241 -42.3192 7.41842 12.5007 12.7056 1.04727 31.3971 40.9996 -15.2499 9.85767 -6.63908 3.18055e-015 6.36111e-015 -1.59028e-015 -19.3693 7.90921 -19.5745 10.4682 54.7275 -5.94434 25.3803 15.7534 -24.14 1.19271e-014 6.36111e-015 6.36111e-015 
-2.32117 80.6922 7.19913 -26.0373 -81.9312 156.829 2.96298 -2.37216 -1.51868 -4.79062 -16.2909 -2.2661 3.49778 2.43789 -1.20655 5.61327 -29.7567 0.513091 26.2329 -11.5914 -8.07431 3.96547 -14.649 -40.0891 59.6068 -38.2019 -78.4827 -20.8542 8.15373 44.0752 -13.6784 -10.5992 3.43388 9.56131 -18.8545 21.5203 -33.2901 -33.9634 102.187 -24.5987 18.0893 -43.4432 7.8053 11.4589 12.5148 1.65616 34.307 42.4287 -15.5069 9.8404 -7.19563 -3.18055e-015 0 7.95139e-016 -20.0053 8.08572 -19.4592 11.4311 55.6519 -6.85052 25.385 15.8328 -24.1132 2.38542e-015 -3.18055e-015 -1.59028e-015 
-2.26567 80.6766 7.17475 -25.347 -81.9407 157.62 3.05141 -2.2568 -1.49618 -4.88989 -16.3053 -2.25721 3.41922 2.15202 -1.25735 5.63077 -29.3116 0.447102 26.3492 -11.7629 -8.01331 4.10452 -15.0727 -40.3273 59.8435 -37.5675 -77.8643 -22.248 7.69184 45.1985 -13.9069 -10.8758 3.50095 8.8857 -18.8635 22.7864 -35.0187 -34.0393 100.112 -22.5146 18.2364 -44.6491 8.20874 10.4294 12.3097 2.2683 37.18 44.0828 -16.4796 9.66716 -9.26691 -4.77083e-015 -3.18055e-015 -3.18055e-015 -20.6534 8.25481 -19.5949 12.0451 56.6291 -7.24155 25.3485 15.0914 -24.3677 -5.56597e-015 6.36111e-015 -0 
-2.20514 80.6855 7.14545 -24.9108 -82.0404 158.15 3.11722 -2.22218 -1.48345 -4.94009 -16.3383 -2.25348 3.36485 2.0633 -1.28195 5.58573 -29.1233 0.399275 26.4429 -11.9168 -7.9401 4.32745 -15.1747 -40.5407 60.7816 -36.9482 -76.4269 -23.5994 7.2613 45.8341 -14.1712 -11.1211 3.56955 8.29328 -18.9524 24.0413 -37.1545 -33.9731 97.7665 -19.888 18.487 -45.5806 8.63923 9.36861 12.0853 2.80534 39.9727 45.6271 -16.397 9.68223 -9.09189 -3.18055e-015 0 -1.11319e-014 -21.2548 8.30825 -19.4665 12.9889 57.5106 -8.54004 25.0416 12.4834 -25.2459 -6.36111e-015 0 -0 
-2.14393 80.7013 7.11461 -24.5827 -82.1712 158.55 3.08103 -2.19616 -1.46228 -4.7969 -16.4107 -2.21345 3.18868 2.04998 -1.32103 5.61242 -29.0482 0.38803 26.4161 -12.0663 -7.87644 4.61711 -15.2077 -40.7846 61.5147 -36.2199 -74.9161 -24.3855 6.92123 46.07 -14.7139 -11.4512 3.6071 7.98377 -18.8865 25.1297 -39.6435 -33.8759 95.2942 -16.8273 18.7743 -46.2095 9.07873 8.29522 11.8518 3.20814 42.7377 46.7014 -16.397 9.68223 -9.09189 -6.36111e-015 3.18055e-015 -7.95139e-015 -21.9432 8.30331 -19.5812 13.8046 58.5192 -9.20279 24.6729 12.2431 -25.2924 1.59028e-015 0 -3.18055e-015 
-2.09527 80.7201 7.08599 -24.4694 -82.3195 158.736 3.1726 -2.23376 -1.43642 -4.94035 -16.416 -2.21133 3.11042 1.47302 -1.31226 5.704 -28.2745 0.389439 26.531 -12.2295 -7.82512 4.99957 -15.1778 -40.937 61.9057 -35.4165 -73.4506 -24.5123 6.64718 46.0015 -15.1092 -11.8202 3.6187 7.65791 -18.6685 26.142 -42.3123 -33.74 92.6593 -13.7219 18.9646 -46.4126 9.49807 7.21263 11.6263 3.51198 45.5679 46.8263 -16.397 9.68223 -9.09189 -0 -3.18055e-015 -0 -22.6745 8.2586 -19.6853 14.6424 59.5592 -9.95761 24.5589 11.7231 -25.7033 3.18055e-015 3.18055e-015 -6.36111e-015 
-2.05456 80.7358 7.0549 -24.3088 -82.4518 158.944 3.34852 -2.26173 -1.39149 -5.24746 -16.4081 -2.21461 3.35051 1.47657 -1.3395 5.47597 -28.3841 0.246677 26.7256 -12.3925 -7.80284 5.45433 -15.2359 -41.0682 62.3827 -34.3194 -71.9198 -24.7821 6.69736 45.9707 -15.354 -12.1833 3.59901 7.32747 -18.5685 27.1287 -44.3612 -33.3251 90.4418 -11.0073 19.0244 -46.3553 9.93762 6.12855 11.3842 3.98577 48.3629 48.0904 -16.397 9.68223 -9.09189 -3.18055e-015 -3.18055e-015 -7.95139e-015 -23.363 8.19851 -19.7585 15.3402 60.5813 -10.8445 24.3876 11.652 -25.5806 6.36111e-015 6.36111e-015 3.18055e-015 
-2.00687 80.744 7.01475 -23.765 -82.5507 159.493 3.59765 -2.26842 -1.34931 -5.59241 -16.3242 -2.22331 3.50748 1.55989 -1.45136 5.43485 -28.7124 0.111341 26.9821 -12.5704 -7.71924 5.84576 -15.2514 -41.2096 63.7977 -33.0421 -69.5374 -26.0042 6.99065 44.8495 -15.6639 -12.639 3.57177 7.11113 -18.5276 28.0952 -45.7422 -32.5716 88.6719 -9.16091 19.2731 -46.1959 10.4008 5.06713 11.1212 4.54176 51.2004 49.4987 -16.397 9.68223 -9.09189 3.18055e-015 3.18055e-015 -0 -24.0749 8.25807 -19.5382 16.632 61.4886 -12.0733 23.7444 11.2972 -25.2556 -9.54166e-015 0 3.18055e-015 
-1.97418 80.749 6.97736 -23.3589 -82.6413 159.91 3.72359 -2.25431 -1.31926 -5.69838 -16.2851 -2.20853 3.42772 1.57758 -1.62064 5.6046 -28.9533 0.0233143 27.0991 -12.7202 -7.64122 6.30229 -15.2357 -41.3126 66.0561 -31.598 -66.4209 -28.4813 7.38228 42.4835 -16.0851 -12.9976 3.58665 6.7885 -18.4241 28.8935 -46.5542 -31.7891 87.1546 -8.33045 19.4682 -46.4895 10.8375 4.05598 10.8681 4.90122 54.0815 49.6312 -16.3078 9.61563 -8.89675 -3.18055e-015 0 -6.36111e-015 -24.8242 8.2656 -19.5618 17.4966 62.5508 -12.6655 23.9169 10.8727 -25.5073 4.77083e-015 3.18055e-015 -0 
